<?xml version="1.0" encoding="utf-8"?>
<svg id="master-artboard" viewBox="0 0 83.24764251708984 83.05093383789062" version="1.1" xmlns="http://www.w3.org/2000/svg" x="0px" y="0px" style="enable-background:new 0 0 612 792;" width="83.24764251708984px" height="83.05093383789062px"><rect id="ee-background" x="0" y="0" width="83.24764251708984" height="83.05093383789062" style="fill: white; fill-opacity: 0; pointer-events: none;"/>

<path class="st1" d="M307.1,321.1c22.3,0,40.4,18.1,40.4,40.4s-18.1,40.4-40.4,40.4c-22.3,0-40.4-18.1-40.4-40.4&#10;&#9;&#9;S284.8,321.1,307.1,321.1L307.1,321.1z" style="fill-rule: evenodd; clip-rule: evenodd; fill: rgb(0, 84, 157);" transform="matrix(1, 0, 0, 1, -264.59173583984375, -319.05272312468514)"/><path class="st3" d="M304.9,318.9c22.3,0,40.4,18.1,40.4,40.4c0,22.3-18.1,40.4-40.4,40.4s-40.4-18.1-40.4-40.4&#10;&#9;&#9;C264.5,337,282.6,318.9,304.9,318.9L304.9,318.9z" style="fill-rule: evenodd; clip-rule: evenodd; fill: rgb(0, 133, 252);" transform="matrix(1, 0, 0, 1, -264.59173583984375, -319.05272312468514)"/><path class="st4" d="M344.8,365.6c-1.3,8.1-5,15.5-10.3,21.3c-0.7,0.7-1.3,1.4-2.1,2.1c-7.2,6.7-16.9,10.8-27.5,10.8&#10;&#9;&#9;c-0.4,0-0.7,0-1.1,0c-10.2-0.3-19.5-4.3-26.5-10.8l-2.1-2.1c2.9-1.9,6.5-2.9,9.3-3.7c5.2-1.5,6.8-3.8,7.7-5.3&#10;&#9;&#9;c0.9-1.5,4.4-2.6,4.4-2.6l0-1.9c-3.4-2.8-6-10.3-6-10.3c-1.8,1.3-2.2-6.9-1.9-8.2c0.3-1.2,2.2,0,2.2,0c-1.7-5.7-0.9-14.5-0.9-14.5&#10;&#9;&#9;c4.7-6.4,14.8-6.2,14.8-6.2s10.1-0.2,14.8,6.2L344.8,365.6L344.8,365.6z" style="fill-rule: evenodd; clip-rule: evenodd; fill: rgb(0, 144, 252);" transform="matrix(1, 0, 0, 1, -264.59173583984375, -319.05272312468514)"/><path class="st5" d="M325.2,383.2c2.8,0.8,6.4,1.8,9.3,3.7l-2.1,2.1c-7.2,6.7-16.9,10.8-27.5,10.8c-10.6,0-20.3-4.1-27.5-10.8&#10;&#9;&#9;l-2.1-2.1c2.9-1.9,6.5-2.9,9.3-3.7c5.2-1.5,6.8-3.8,7.7-5.3c0.9-1.5,4.4-2.6,4.4-2.6l0-1.9c-3.4-2.8-6-10.3-6-10.3&#10;&#9;&#9;c-1.8,1.3-2.2-6.9-1.9-8.2c0.3-1.2,2.2,0,2.2,0c-1.7-5.7-0.9-14.5-0.9-14.5c4.7-6.4,14.8-6.2,14.8-6.2s10.1-0.2,14.8,6.2&#10;&#9;&#9;c0,0,0.7,8.7-0.9,14.5c0,0,1.8-1.2,2.2,0c0.3,1.2,0,9.5-1.9,8.2c0,0-2.6,7.5-6,10.3l0,1.9c0,0,3.5,1.1,4.4,2.6&#10;&#9;&#9;C318.4,379.4,320,381.7,325.2,383.2L325.2,383.2z" style="fill-rule: evenodd; clip-rule: evenodd; fill: rgb(255, 255, 255);" transform="matrix(1, 0, 0, 1, -265.4685974121094, -318.6143087487519)"/>
<path d="M 64.656982421875 37.45823669433594" style="fill: rgb(192, 207, 114); fill-opacity: 1; stroke: rgb(0, 0, 0); stroke-opacity: 1; stroke-width: 0; paint-order: fill;"/><path d="M 63.780113220214844 44.91162872314453" style="fill: rgb(0, 84, 157); fill-opacity: 1; stroke: rgb(0, 0, 0); stroke-opacity: 1; stroke-width: 0; paint-order: fill;"/><path d="M 70.35663604736328 50.172847747802734" style="fill: rgb(0, 144, 252); fill-opacity: 1; stroke: rgb(0, 0, 0); stroke-opacity: 1; stroke-width: 0; paint-order: fill;"/></svg>